<svg width="82" height="52" viewBox="0 0 82 52" fill="none" xmlns="http://www.w3.org/2000/svg">
<path d="M55.9468 22.3033C62.0831 22.3033 66.9995 17.35 66.9995 11.2137C66.9995 5.0774 62.0831 0.124023 55.9468 0.124023C49.8105 0.124023 44.8572 5.0774 44.8572 11.2137C44.8572 17.35 49.8105 22.3033 55.9468 22.3033ZM26.3744 22.3033C32.5107 22.3033 37.4271 17.35 37.4271 11.2137C37.4271 5.0774 32.5107 0.124023 26.3744 0.124023C20.2381 0.124023 15.2847 5.0774 15.2847 11.2137C15.2847 17.35 20.2381 22.3033 26.3744 22.3033ZM26.3744 29.6964C17.7614 29.6964 0.498535 34.0214 0.498535 42.6344V51.8757H52.2503V42.6344C52.2503 34.0214 34.9874 29.6964 26.3744 29.6964ZM55.9468 29.6964C54.8748 29.6964 53.655 29.7704 52.3612 29.8813C56.6492 32.9864 59.6434 37.1635 59.6434 42.6344V51.8757H81.8227V42.6344C81.8227 34.0214 64.5598 29.6964 55.9468 29.6964Z" fill="#003DA5"/>
</svg>
