<svg width="66" height="56" viewBox="0 0 66 56" fill="none" xmlns="http://www.w3.org/2000/svg">
<path d="M29.7054 2.51771C30.0581 3.08208 30.2963 3.71041 30.4062 4.36681C30.5161 5.02321 30.4956 5.69483 30.346 6.34332C30.1963 6.99182 29.9204 7.60448 29.534 8.14635C29.1475 8.68821 28.6582 9.14865 28.0938 9.50138C21.9256 13.3434 17.0254 18.9169 14.0048 25.5263C17.0552 25.2713 20.1115 25.9428 22.7739 27.4532C25.4363 28.9636 27.5808 31.2425 28.9269 33.9916C30.2729 36.7408 30.7578 39.8322 30.3181 42.8615C29.8783 45.8907 28.5345 48.7167 26.4624 50.9697C24.3902 53.2227 21.6863 54.7977 18.7043 55.4888C15.7223 56.1799 12.6012 55.9547 9.74928 54.8429C6.89735 53.731 4.44743 51.7842 2.72006 49.2572C0.992691 46.7302 0.0683147 43.7406 0.0678711 40.6796V40.5428C0.0733821 40.1504 0.0902824 39.7583 0.118551 39.367C0.164163 38.6068 0.255386 37.5425 0.432766 36.235C0.787524 33.6351 1.48184 30.052 2.88567 26.0281C5.68319 17.97 11.3492 8.01139 22.7217 0.906088C23.2861 0.553353 23.9144 0.315234 24.5708 0.205326C25.2272 0.0954182 25.8989 0.115875 26.5474 0.265527C27.1958 0.41518 27.8085 0.691097 28.3504 1.07753C28.8922 1.46396 29.3527 1.95333 29.7054 2.51771ZM65.1813 2.51771C65.534 3.08208 65.7721 3.71041 65.882 4.36681C65.9919 5.02321 65.9715 5.69483 65.8218 6.34332C65.6722 6.99182 65.3963 7.60448 65.0098 8.14635C64.6234 8.68821 64.134 9.14865 63.5697 9.50138C57.4014 13.3434 52.5012 18.9169 49.4807 25.5263C52.531 25.2713 55.5873 25.9428 58.2497 27.4532C60.9122 28.9636 63.0567 31.2425 64.4027 33.9916C65.7487 36.7408 66.2336 39.8322 65.7939 42.8615C65.3542 45.8907 64.0103 48.7167 61.9382 50.9697C59.8661 53.2227 57.1621 54.7977 54.1802 55.4888C51.1982 56.1799 48.0771 55.9547 45.2251 54.8429C42.3732 53.731 39.9233 51.7842 38.1959 49.2572C36.4685 46.7302 35.5442 43.7406 35.5437 40.6796V40.5428C35.5492 40.1504 35.5661 39.7583 35.5944 39.367C35.64 38.6068 35.7312 37.5425 35.9086 36.235C36.2634 33.6351 36.9577 30.052 38.3615 26.0281C41.159 17.97 46.8251 8.01139 58.1976 0.906088C58.762 0.553353 59.3903 0.315234 60.0467 0.205326C60.7031 0.0954182 61.3747 0.115875 62.0232 0.265527C62.6717 0.41518 63.2844 0.691097 63.8262 1.07753C64.3681 1.46396 64.8285 1.95333 65.1813 2.51771Z" fill="black"/>
</svg>
