<svg width="432" height="416" viewBox="0 0 432 416" fill="none" xmlns="http://www.w3.org/2000/svg">
<g filter="url(#filter0_d_553_200)">
<path d="M0.1875 9.99999C0.1875 4.47715 4.66465 0 10.1875 0H412.903C418.426 0 422.903 4.47715 422.903 10V397.321C422.903 402.844 418.426 407.321 412.903 407.321H10.1875C4.66466 407.321 0.1875 402.844 0.1875 397.321V9.99999Z" fill="white"/>
</g>
<path d="M72.4176 142.365C73.1996 142.513 73.8342 142.802 74.3216 143.232C74.8202 143.663 75.0696 144.309 75.0696 145.17C75.0696 146.428 74.6162 147.318 73.7096 147.839C72.8142 148.349 71.5562 148.604 69.9356 148.604H66.1446V136.823H69.4766C71.1312 136.823 72.3949 137.061 73.2676 137.537C74.1402 138.002 74.5766 138.767 74.5766 139.832C74.5766 140.524 74.3669 141.085 73.9476 141.515C73.5396 141.935 73.0296 142.218 72.4176 142.365ZM68.9326 138.795V141.532H69.9696C71.1482 141.532 71.7376 141.056 71.7376 140.104C71.7376 139.628 71.5789 139.294 71.2616 139.101C70.9442 138.897 70.4399 138.795 69.7486 138.795H68.9326ZM69.9526 146.581C70.6892 146.581 71.2446 146.474 71.6186 146.258C72.0039 146.032 72.1966 145.618 72.1966 145.017C72.1966 143.929 71.5166 143.385 70.1566 143.385H68.9326V146.581H69.9526ZM81.9067 148.621C81.5441 149.789 80.9491 150.684 80.1217 151.307C79.3057 151.942 78.2064 152.299 76.8237 152.378L76.5347 150.491C77.3961 150.378 78.0307 150.185 78.4387 149.913C78.8581 149.641 79.1924 149.205 79.4417 148.604H78.5237L75.7697 139.577H78.6257L80.2407 146.887L82.0087 139.577H84.7797L81.9067 148.621ZM91.7256 148.179C91.3969 148.406 91.0116 148.582 90.5696 148.706C90.1389 148.831 89.7082 148.893 89.2776 148.893C87.3056 148.882 86.3196 147.794 86.3196 145.629V141.447H85.0446V139.577H86.3196V137.622L89.0056 137.316V139.577H91.0796L90.7906 141.447H89.0056V145.595C89.0056 146.015 89.0736 146.315 89.2096 146.496C89.3456 146.678 89.5609 146.768 89.8556 146.768C90.1616 146.768 90.4846 146.672 90.8246 146.479L91.7256 148.179ZM100.534 143.912C100.534 144.286 100.517 144.609 100.483 144.881H94.8904C94.981 145.641 95.1964 146.173 95.5364 146.479C95.8764 146.785 96.3467 146.938 96.9474 146.938C97.31 146.938 97.6614 146.876 98.0014 146.751C98.3414 146.615 98.7097 146.411 99.1064 146.139L100.211 147.635C99.1574 148.474 97.9844 148.893 96.6924 148.893C95.2304 148.893 94.1084 148.463 93.3264 147.601C92.5444 146.74 92.1534 145.584 92.1534 144.133C92.1534 143.215 92.3177 142.394 92.6464 141.668C92.975 140.932 93.4567 140.354 94.0914 139.934C94.726 139.504 95.4854 139.288 96.3694 139.288C97.6727 139.288 98.6927 139.696 99.4294 140.512C100.166 141.328 100.534 142.462 100.534 143.912ZM97.8994 143.147C97.8767 141.765 97.3894 141.073 96.4374 141.073C95.9727 141.073 95.61 141.243 95.3494 141.583C95.1 141.923 94.947 142.484 94.8904 143.266H97.8994V143.147ZM105.562 139.288C106.208 139.288 106.815 139.385 107.381 139.577C107.948 139.77 108.447 140.042 108.877 140.393L107.891 141.906C107.155 141.442 106.412 141.209 105.664 141.209C105.313 141.209 105.041 141.272 104.848 141.396C104.667 141.51 104.576 141.674 104.576 141.889C104.576 142.059 104.616 142.201 104.695 142.314C104.786 142.416 104.962 142.524 105.222 142.637C105.483 142.751 105.885 142.887 106.429 143.045C107.37 143.317 108.067 143.674 108.52 144.116C108.985 144.547 109.217 145.148 109.217 145.918C109.217 146.53 109.042 147.063 108.69 147.516C108.339 147.958 107.857 148.298 107.245 148.536C106.633 148.774 105.953 148.893 105.205 148.893C104.446 148.893 103.738 148.774 103.08 148.536C102.434 148.298 101.885 147.97 101.431 147.55L102.74 146.088C103.5 146.678 104.299 146.972 105.137 146.972C105.545 146.972 105.863 146.899 106.089 146.751C106.327 146.604 106.446 146.394 106.446 146.122C106.446 145.907 106.401 145.737 106.31 145.612C106.22 145.488 106.044 145.374 105.783 145.272C105.523 145.159 105.109 145.023 104.542 144.864C103.647 144.604 102.978 144.241 102.536 143.776C102.094 143.312 101.873 142.734 101.873 142.042C101.873 141.521 102.021 141.056 102.315 140.648C102.621 140.229 103.052 139.9 103.607 139.662C104.174 139.413 104.826 139.288 105.562 139.288Z" fill="#003DA5"/>
<mask id="path-3-outside-1_553_200" maskUnits="userSpaceOnUse" x="136.953" y="227.359" width="37" height="19" fill="black">
<rect fill="white" x="136.953" y="227.359" width="37" height="19"/>
<path d="M147.357 229.487V244.359H143.947V232.875L140.757 234.833L139.239 232.523L144.255 229.487H147.357ZM154.834 229.179C155.905 229.179 156.822 229.37 157.584 229.751C158.362 230.132 158.948 230.646 159.344 231.291C159.755 231.936 159.96 232.648 159.96 233.425C159.96 234.217 159.799 234.972 159.476 235.691C159.154 236.41 158.582 237.238 157.76 238.177C156.939 239.101 155.744 240.274 154.174 241.697H160.268L159.916 244.359H150.236V241.895C152.04 240.12 153.353 238.786 154.174 237.891C154.996 236.982 155.568 236.226 155.89 235.625C156.228 235.024 156.396 234.408 156.396 233.777C156.396 233.176 156.22 232.706 155.868 232.369C155.531 232.017 155.069 231.841 154.482 231.841C153.954 231.841 153.485 231.966 153.074 232.215C152.664 232.45 152.231 232.838 151.776 233.381L149.73 231.753C150.346 230.946 151.08 230.316 151.93 229.861C152.796 229.406 153.764 229.179 154.834 229.179ZM167.283 229.179C169.072 229.179 170.443 229.707 171.397 230.763C172.35 231.804 172.827 233.198 172.827 234.943C172.827 236.952 172.497 238.617 171.837 239.937C171.191 241.257 170.194 242.32 168.845 243.127C167.495 243.919 165.735 244.535 163.565 244.975L162.861 242.555C164.782 242.086 166.227 241.499 167.195 240.795C168.163 240.076 168.793 239.072 169.087 237.781C168.309 238.734 167.283 239.211 166.007 239.211C165.229 239.211 164.518 239.013 163.873 238.617C163.227 238.221 162.714 237.649 162.333 236.901C161.951 236.153 161.761 235.288 161.761 234.305C161.761 233.293 162.003 232.398 162.487 231.621C162.971 230.844 163.631 230.242 164.467 229.817C165.317 229.392 166.256 229.179 167.283 229.179ZM167.085 236.769C167.51 236.769 167.906 236.659 168.273 236.439C168.654 236.204 168.991 235.874 169.285 235.449C169.299 234.07 169.153 233.095 168.845 232.523C168.537 231.951 168.016 231.665 167.283 231.665C166.652 231.665 166.153 231.885 165.787 232.325C165.435 232.75 165.259 233.374 165.259 234.195C165.259 235.104 165.42 235.764 165.743 236.175C166.08 236.571 166.527 236.769 167.085 236.769Z"/>
</mask>
<path d="M147.357 229.487V244.359H143.947V232.875L140.757 234.833L139.239 232.523L144.255 229.487H147.357ZM154.834 229.179C155.905 229.179 156.822 229.37 157.584 229.751C158.362 230.132 158.948 230.646 159.344 231.291C159.755 231.936 159.96 232.648 159.96 233.425C159.96 234.217 159.799 234.972 159.476 235.691C159.154 236.41 158.582 237.238 157.76 238.177C156.939 239.101 155.744 240.274 154.174 241.697H160.268L159.916 244.359H150.236V241.895C152.04 240.12 153.353 238.786 154.174 237.891C154.996 236.982 155.568 236.226 155.89 235.625C156.228 235.024 156.396 234.408 156.396 233.777C156.396 233.176 156.22 232.706 155.868 232.369C155.531 232.017 155.069 231.841 154.482 231.841C153.954 231.841 153.485 231.966 153.074 232.215C152.664 232.45 152.231 232.838 151.776 233.381L149.73 231.753C150.346 230.946 151.08 230.316 151.93 229.861C152.796 229.406 153.764 229.179 154.834 229.179ZM167.283 229.179C169.072 229.179 170.443 229.707 171.397 230.763C172.35 231.804 172.827 233.198 172.827 234.943C172.827 236.952 172.497 238.617 171.837 239.937C171.191 241.257 170.194 242.32 168.845 243.127C167.495 243.919 165.735 244.535 163.565 244.975L162.861 242.555C164.782 242.086 166.227 241.499 167.195 240.795C168.163 240.076 168.793 239.072 169.087 237.781C168.309 238.734 167.283 239.211 166.007 239.211C165.229 239.211 164.518 239.013 163.873 238.617C163.227 238.221 162.714 237.649 162.333 236.901C161.951 236.153 161.761 235.288 161.761 234.305C161.761 233.293 162.003 232.398 162.487 231.621C162.971 230.844 163.631 230.242 164.467 229.817C165.317 229.392 166.256 229.179 167.283 229.179ZM167.085 236.769C167.51 236.769 167.906 236.659 168.273 236.439C168.654 236.204 168.991 235.874 169.285 235.449C169.299 234.07 169.153 233.095 168.845 232.523C168.537 231.951 168.016 231.665 167.283 231.665C166.652 231.665 166.153 231.885 165.787 232.325C165.435 232.75 165.259 233.374 165.259 234.195C165.259 235.104 165.42 235.764 165.743 236.175C166.08 236.571 166.527 236.769 167.085 236.769Z" fill="#FFCC00"/>
<path d="M147.357 229.487H148.357V228.487H147.357V229.487ZM147.357 244.359V245.359H148.357V244.359H147.357ZM143.947 244.359H142.947V245.359H143.947V244.359ZM143.947 232.875H144.947V231.088L143.424 232.023L143.947 232.875ZM140.757 234.833L139.921 235.382L140.454 236.193L141.28 235.685L140.757 234.833ZM139.239 232.523L138.721 231.668L137.833 232.205L138.403 233.072L139.239 232.523ZM144.255 229.487V228.487H143.976L143.737 228.632L144.255 229.487ZM147.357 229.487H146.357V244.359H147.357H148.357V229.487H147.357ZM147.357 244.359V243.359H143.947V244.359V245.359H147.357V244.359ZM143.947 244.359H144.947V232.875H143.947H142.947V244.359H143.947ZM143.947 232.875L143.424 232.023L140.234 233.981L140.757 234.833L141.28 235.685L144.47 233.727L143.947 232.875ZM140.757 234.833L141.593 234.284L140.075 231.974L139.239 232.523L138.403 233.072L139.921 235.382L140.757 234.833ZM139.239 232.523L139.757 233.379L144.773 230.343L144.255 229.487L143.737 228.632L138.721 231.668L139.239 232.523ZM144.255 229.487V230.487H147.357V229.487V228.487H144.255V229.487ZM157.584 229.751L157.137 230.646L157.144 230.649L157.584 229.751ZM159.344 231.291L158.492 231.814L158.496 231.821L158.501 231.828L159.344 231.291ZM159.476 235.691L160.388 236.101V236.101L159.476 235.691ZM157.76 238.177L158.508 238.842L158.513 238.836L157.76 238.177ZM154.174 241.697L153.503 240.956L151.582 242.697H154.174V241.697ZM160.268 241.697L161.26 241.828L161.409 240.697H160.268V241.697ZM159.916 244.359V245.359H160.793L160.908 244.49L159.916 244.359ZM150.236 244.359H149.236V245.359H150.236V244.359ZM150.236 241.895L149.535 241.182L149.236 241.476V241.895H150.236ZM154.174 237.891L154.911 238.567L154.916 238.561L154.174 237.891ZM155.89 235.625L155.018 235.136L155.013 235.144L155.009 235.152L155.89 235.625ZM155.868 232.369L155.146 233.061L155.161 233.076L155.176 233.091L155.868 232.369ZM153.074 232.215L153.57 233.083L153.582 233.077L153.593 233.07L153.074 232.215ZM151.776 233.381L151.154 234.164L151.917 234.771L152.543 234.023L151.776 233.381ZM149.73 231.753L148.935 231.146L148.341 231.925L149.108 232.536L149.73 231.753ZM151.93 229.861L151.465 228.976L151.459 228.979L151.93 229.861ZM154.834 229.179V230.179C155.788 230.179 156.544 230.349 157.137 230.646L157.584 229.751L158.031 228.857C157.099 228.39 156.021 228.179 154.834 228.179V229.179ZM157.584 229.751L157.144 230.649C157.776 230.959 158.209 231.352 158.492 231.814L159.344 231.291L160.197 230.768C159.688 229.939 158.947 229.306 158.025 228.853L157.584 229.751ZM159.344 231.291L158.501 231.828C158.807 232.31 158.96 232.835 158.96 233.425H159.96H160.96C160.96 232.461 160.702 231.563 160.188 230.754L159.344 231.291ZM159.96 233.425H158.96C158.96 234.077 158.828 234.692 158.564 235.282L159.476 235.691L160.388 236.101C160.769 235.253 160.96 234.358 160.96 233.425H159.96ZM159.476 235.691L158.564 235.282C158.298 235.873 157.797 236.616 157.008 237.519L157.76 238.177L158.513 238.836C159.366 237.86 160.009 236.947 160.388 236.101L159.476 235.691ZM157.76 238.177L157.013 237.513C156.226 238.398 155.061 239.543 153.503 240.956L154.174 241.697L154.846 242.438C156.426 241.006 157.651 239.805 158.508 238.841L157.76 238.177ZM154.174 241.697V242.697H160.268V241.697V240.697H154.174V241.697ZM160.268 241.697L159.277 241.566L158.925 244.228L159.916 244.359L160.908 244.49L161.26 241.828L160.268 241.697ZM159.916 244.359V243.359H150.236V244.359V245.359H159.916V244.359ZM150.236 244.359H151.236V241.895H150.236H149.236V244.359H150.236ZM150.236 241.895L150.937 242.608C152.744 240.831 154.071 239.482 154.911 238.567L154.174 237.891L153.438 237.215C152.634 238.09 151.337 239.41 149.535 241.182L150.236 241.895ZM154.174 237.891L154.916 238.561C155.756 237.632 156.392 236.806 156.771 236.098L155.89 235.625L155.009 235.152C154.743 235.647 154.235 236.332 153.432 237.221L154.174 237.891ZM155.89 235.625L156.762 236.114C157.175 235.378 157.396 234.595 157.396 233.777H156.396H155.396C155.396 234.221 155.28 234.67 155.018 235.136L155.89 235.625ZM156.396 233.777H157.396C157.396 232.971 157.153 232.215 156.56 231.647L155.868 232.369L155.176 233.091C155.287 233.197 155.396 233.38 155.396 233.777H156.396ZM155.868 232.369L156.59 231.677C156.027 231.089 155.282 230.841 154.482 230.841V231.841V232.841C154.856 232.841 155.035 232.945 155.146 233.061L155.868 232.369ZM154.482 231.841V230.841C153.79 230.841 153.138 231.007 152.555 231.36L153.074 232.215L153.593 233.07C153.832 232.925 154.119 232.841 154.482 232.841V231.841ZM153.074 232.215L152.578 231.347C152.027 231.662 151.506 232.146 151.01 232.739L151.776 233.381L152.543 234.023C152.955 233.531 153.3 233.238 153.57 233.083L153.074 232.215ZM151.776 233.381L152.399 232.599L150.353 230.971L149.73 231.753L149.108 232.536L151.154 234.164L151.776 233.381ZM149.73 231.753L150.525 232.36C151.059 231.661 151.684 231.127 152.402 230.743L151.93 229.861L151.459 228.979C150.475 229.505 149.634 230.232 148.935 231.146L149.73 231.753ZM151.93 229.861L152.395 230.746C153.104 230.374 153.91 230.179 154.834 230.179V229.179V228.179C153.617 228.179 152.487 228.439 151.465 228.976L151.93 229.861ZM171.397 230.763L170.654 231.433L170.659 231.438L171.397 230.763ZM171.837 239.937L170.942 239.49L170.938 239.498L171.837 239.937ZM168.845 243.127L169.351 243.99L169.358 243.985L168.845 243.127ZM163.565 244.975L162.604 245.254L162.861 246.138L163.763 245.955L163.565 244.975ZM162.861 242.555L162.623 241.584L161.609 241.832L161.9 242.834L162.861 242.555ZM167.195 240.795L167.783 241.604L167.791 241.598L167.195 240.795ZM169.087 237.781L170.062 238.003L168.312 237.149L169.087 237.781ZM163.873 238.617L163.35 239.469L163.873 238.617ZM162.333 236.901L163.223 236.447L162.333 236.901ZM162.487 231.621L161.638 231.093V231.093L162.487 231.621ZM164.467 229.817L164.019 228.923L164.013 228.926L164.467 229.817ZM168.273 236.439L168.787 237.297L168.797 237.291L168.273 236.439ZM169.285 235.449L170.108 236.017L170.281 235.765L170.285 235.46L169.285 235.449ZM168.845 232.523L169.725 232.049V232.049L168.845 232.523ZM165.787 232.325L165.018 231.685L165.016 231.688L165.787 232.325ZM165.743 236.175L164.956 236.793L164.969 236.809L164.981 236.824L165.743 236.175ZM167.283 229.179V230.179C168.867 230.179 169.937 230.639 170.654 231.433L171.397 230.763L172.139 230.093C170.949 228.775 169.277 228.179 167.283 228.179V229.179ZM171.397 230.763L170.659 231.438C171.406 232.254 171.827 233.386 171.827 234.943H172.827H173.827C173.827 233.01 173.294 231.355 172.134 230.088L171.397 230.763ZM172.827 234.943H171.827C171.827 236.85 171.512 238.35 170.942 239.49L171.837 239.937L172.731 240.384C173.481 238.885 173.827 237.054 173.827 234.943H172.827ZM171.837 239.937L170.938 239.498C170.384 240.632 169.527 241.554 168.331 242.269L168.845 243.127L169.358 243.985C170.861 243.087 171.999 241.883 172.735 240.376L171.837 239.937ZM168.845 243.127L168.338 242.265C167.115 242.983 165.47 243.569 163.366 243.995L163.565 244.975L163.763 245.955C166.001 245.502 167.876 244.855 169.351 243.99L168.845 243.127ZM163.565 244.975L164.525 244.696L163.821 242.276L162.861 242.555L161.9 242.834L162.604 245.254L163.565 244.975ZM162.861 242.555L163.098 243.527C165.074 243.044 166.663 242.418 167.783 241.604L167.195 240.795L166.606 239.986C165.79 240.58 164.49 241.128 162.623 241.584L162.861 242.555ZM167.195 240.795L167.791 241.598C168.97 240.723 169.721 239.502 170.062 238.003L169.087 237.781L168.111 237.56C167.865 238.642 167.356 239.43 166.598 239.992L167.195 240.795ZM169.087 237.781L168.312 237.149C167.732 237.86 166.995 238.211 166.007 238.211V239.211V240.211C167.57 240.211 168.886 239.609 169.862 238.413L169.087 237.781ZM166.007 239.211V238.211C165.409 238.211 164.879 238.062 164.396 237.765L163.873 238.617L163.35 239.469C164.157 239.965 165.05 240.211 166.007 240.211V239.211ZM163.873 238.617L164.396 237.765C163.924 237.475 163.531 237.049 163.223 236.447L162.333 236.901L161.442 237.355C161.897 238.249 162.531 238.967 163.35 239.469L163.873 238.617ZM162.333 236.901L163.223 236.447C162.925 235.862 162.761 235.157 162.761 234.305H161.761H160.761C160.761 235.419 160.977 236.445 161.442 237.355L162.333 236.901ZM161.761 234.305H162.761C162.761 233.46 162.96 232.752 163.335 232.15L162.487 231.621L161.638 231.093C161.045 232.045 160.761 233.127 160.761 234.305H161.761ZM162.487 231.621L163.335 232.15C163.721 231.531 164.242 231.053 164.92 230.708L164.467 229.817L164.013 228.926C163.019 229.432 162.22 230.157 161.638 231.093L162.487 231.621ZM164.467 229.817L164.914 230.712C165.615 230.361 166.399 230.179 167.283 230.179V229.179V228.179C166.113 228.179 165.02 228.423 164.019 228.923L164.467 229.817ZM167.085 236.769V237.769C167.692 237.769 168.266 237.609 168.787 237.297L168.273 236.439L167.758 235.582C167.546 235.709 167.328 235.769 167.085 235.769V236.769ZM168.273 236.439L168.797 237.291C169.313 236.973 169.748 236.539 170.108 236.017L169.285 235.449L168.461 234.881C168.235 235.21 167.995 235.436 167.748 235.587L168.273 236.439ZM169.285 235.449L170.285 235.46C170.299 234.062 170.163 232.862 169.725 232.049L168.845 232.523L167.964 232.997C168.143 233.329 168.299 234.079 168.285 235.438L169.285 235.449ZM168.845 232.523L169.725 232.049C169.489 231.61 169.15 231.248 168.705 231.003C168.266 230.762 167.779 230.665 167.283 230.665V231.665V232.665C167.52 232.665 167.66 232.711 167.742 232.756C167.817 232.798 167.893 232.864 167.964 232.997L168.845 232.523ZM167.283 231.665V230.665C166.389 230.665 165.596 230.992 165.018 231.685L165.787 232.325L166.555 232.965C166.711 232.778 166.915 232.665 167.283 232.665V231.665ZM165.787 232.325L165.016 231.688C164.458 232.362 164.259 233.251 164.259 234.195H165.259H166.259C166.259 233.497 166.411 233.139 166.557 232.963L165.787 232.325ZM165.259 234.195H164.259C164.259 235.179 164.425 236.117 164.956 236.793L165.743 236.175L166.529 235.557C166.415 235.412 166.259 235.029 166.259 234.195H165.259ZM165.743 236.175L164.981 236.824C165.524 237.46 166.258 237.769 167.085 237.769V236.769V235.769C166.796 235.769 166.636 235.682 166.504 235.527L165.743 236.175Z" fill="#B99400" mask="url(#path-3-outside-1_553_200)"/>
<path d="M79.4325 228.85V242.37H76.3325V231.93L73.4325 233.71L72.0525 231.61L76.6125 228.85H79.4325ZM86.2498 228.57C87.1965 228.57 88.0032 228.723 88.6698 229.03C89.3498 229.337 89.8632 229.75 90.2098 230.27C90.5698 230.79 90.7498 231.37 90.7498 232.01C90.7498 232.823 90.5165 233.503 90.0498 234.05C89.5965 234.597 88.9498 234.99 88.1098 235.23C89.0165 235.323 89.7565 235.65 90.3298 236.21C90.9032 236.757 91.1898 237.537 91.1898 238.55C91.1898 239.31 90.9898 240.01 90.5898 240.65C90.1898 241.277 89.5965 241.777 88.8098 242.15C88.0365 242.523 87.1098 242.71 86.0298 242.71C84.0565 242.71 82.5098 242.03 81.3898 240.67L83.0898 239.01C83.5432 239.463 83.9832 239.797 84.4098 240.01C84.8498 240.21 85.3298 240.31 85.8498 240.31C86.4765 240.31 86.9832 240.137 87.3698 239.79C87.7565 239.443 87.9498 238.963 87.9498 238.35C87.9498 237.657 87.7632 237.163 87.3898 236.87C87.0298 236.563 86.4832 236.41 85.7498 236.41H84.6298L84.9698 234.23H85.7498C86.3498 234.23 86.8232 234.077 87.1698 233.77C87.5165 233.463 87.6898 233.03 87.6898 232.47C87.6898 231.977 87.5298 231.597 87.2098 231.33C86.8898 231.05 86.4498 230.91 85.8898 230.91C84.9432 230.91 84.0632 231.303 83.2498 232.09L81.6898 230.39C82.9698 229.177 84.4898 228.57 86.2498 228.57ZM96.8251 228.57C97.7985 228.57 98.6318 228.743 99.3251 229.09C100.032 229.437 100.565 229.903 100.925 230.49C101.298 231.077 101.485 231.723 101.485 232.43C101.485 233.15 101.338 233.837 101.045 234.49C100.752 235.143 100.232 235.897 99.4851 236.75C98.7385 237.59 97.6518 238.657 96.2251 239.95H101.765L101.445 242.37H92.6451V240.13C94.2851 238.517 95.4785 237.303 96.2251 236.49C96.9718 235.663 97.4918 234.977 97.7851 234.43C98.0918 233.883 98.2451 233.323 98.2451 232.75C98.2451 232.203 98.0851 231.777 97.7651 231.47C97.4585 231.15 97.0385 230.99 96.5051 230.99C96.0251 230.99 95.5985 231.103 95.2251 231.33C94.8518 231.543 94.4585 231.897 94.0451 232.39L92.1851 230.91C92.7451 230.177 93.4118 229.603 94.1851 229.19C94.9718 228.777 95.8518 228.57 96.8251 228.57Z" fill="black"/>
<path d="M79.6796 275.084V288.604H76.5796V278.164L73.6796 279.944L72.2996 277.844L76.8596 275.084H79.6796ZM86.4969 274.804C87.4436 274.804 88.2502 274.958 88.9169 275.264C89.5969 275.571 90.1102 275.984 90.4569 276.504C90.8169 277.024 90.9969 277.604 90.9969 278.244C90.9969 279.058 90.7636 279.738 90.2969 280.284C89.8436 280.831 89.1969 281.224 88.3569 281.464C89.2636 281.558 90.0036 281.884 90.5769 282.444C91.1502 282.991 91.4369 283.771 91.4369 284.784C91.4369 285.544 91.2369 286.244 90.8369 286.884C90.4369 287.511 89.8436 288.011 89.0569 288.384C88.2836 288.758 87.3569 288.944 86.2769 288.944C84.3036 288.944 82.7569 288.264 81.6369 286.904L83.3369 285.244C83.7902 285.698 84.2302 286.031 84.6569 286.244C85.0969 286.444 85.5769 286.544 86.0969 286.544C86.7236 286.544 87.2302 286.371 87.6169 286.024C88.0036 285.678 88.1969 285.198 88.1969 284.584C88.1969 283.891 88.0102 283.398 87.6369 283.104C87.2769 282.798 86.7302 282.644 85.9969 282.644H84.8769L85.2169 280.464H85.9969C86.5969 280.464 87.0702 280.311 87.4169 280.004C87.7636 279.698 87.9369 279.264 87.9369 278.704C87.9369 278.211 87.7769 277.831 87.4569 277.564C87.1369 277.284 86.6969 277.144 86.1369 277.144C85.1902 277.144 84.3102 277.538 83.4969 278.324L81.9369 276.624C83.2169 275.411 84.7369 274.804 86.4969 274.804ZM97.2875 274.804C98.2342 274.804 99.0409 274.958 99.7075 275.264C100.388 275.571 100.901 275.984 101.248 276.504C101.608 277.024 101.788 277.604 101.788 278.244C101.788 279.058 101.554 279.738 101.088 280.284C100.634 280.831 99.9875 281.224 99.1475 281.464C100.054 281.558 100.794 281.884 101.368 282.444C101.941 282.991 102.228 283.771 102.228 284.784C102.228 285.544 102.028 286.244 101.628 286.884C101.228 287.511 100.634 288.011 99.8475 288.384C99.0742 288.758 98.1475 288.944 97.0675 288.944C95.0942 288.944 93.5475 288.264 92.4275 286.904L94.1275 285.244C94.5809 285.698 95.0209 286.031 95.4475 286.244C95.8875 286.444 96.3675 286.544 96.8875 286.544C97.5142 286.544 98.0209 286.371 98.4075 286.024C98.7942 285.678 98.9875 285.198 98.9875 284.584C98.9875 283.891 98.8009 283.398 98.4275 283.104C98.0675 282.798 97.5209 282.644 96.7875 282.644H95.6675L96.0075 280.464H96.7875C97.3875 280.464 97.8609 280.311 98.2075 280.004C98.5542 279.698 98.7275 279.264 98.7275 278.704C98.7275 278.211 98.5675 277.831 98.2475 277.564C97.9275 277.284 97.4875 277.144 96.9275 277.144C95.9809 277.144 95.1009 277.538 94.2875 278.324L92.7275 276.624C94.0075 275.411 95.5275 274.804 97.2875 274.804Z" fill="black"/>
<path d="M149.556 275.343V288.863H146.456V278.423L143.556 280.203L142.176 278.103L146.736 275.343H149.556ZM156.373 275.063C157.32 275.063 158.127 275.216 158.793 275.523C159.473 275.83 159.987 276.243 160.333 276.763C160.693 277.283 160.873 277.863 160.873 278.503C160.873 279.316 160.64 279.996 160.173 280.543C159.72 281.09 159.073 281.483 158.233 281.723C159.14 281.816 159.88 282.143 160.453 282.703C161.027 283.25 161.313 284.03 161.313 285.043C161.313 285.803 161.113 286.503 160.713 287.143C160.313 287.77 159.72 288.27 158.933 288.643C158.16 289.016 157.233 289.203 156.153 289.203C154.18 289.203 152.633 288.523 151.513 287.163L153.213 285.503C153.667 285.956 154.107 286.29 154.533 286.503C154.973 286.703 155.453 286.803 155.973 286.803C156.6 286.803 157.107 286.63 157.493 286.283C157.88 285.936 158.073 285.456 158.073 284.843C158.073 284.15 157.887 283.656 157.513 283.363C157.153 283.056 156.607 282.903 155.873 282.903H154.753L155.093 280.723H155.873C156.473 280.723 156.947 280.57 157.293 280.263C157.64 279.956 157.813 279.523 157.813 278.963C157.813 278.47 157.653 278.09 157.333 277.823C157.013 277.543 156.573 277.403 156.013 277.403C155.067 277.403 154.187 277.796 153.373 278.583L151.813 276.883C153.093 275.67 154.613 275.063 156.373 275.063ZM171.464 277.603H166.564V280.443C167.191 280.15 167.857 280.003 168.564 280.003C169.311 280.003 169.977 280.176 170.564 280.523C171.151 280.87 171.611 281.376 171.944 282.043C172.277 282.71 172.444 283.496 172.444 284.403C172.444 285.35 172.224 286.19 171.784 286.923C171.357 287.643 170.737 288.203 169.924 288.603C169.124 289.003 168.197 289.203 167.144 289.203C165.317 289.203 163.817 288.523 162.644 287.163L164.404 285.523C165.137 286.39 166.011 286.823 167.024 286.823C167.717 286.823 168.251 286.616 168.624 286.203C169.011 285.79 169.204 285.196 169.204 284.423C169.204 282.916 168.571 282.163 167.304 282.163C167.037 282.163 166.777 282.203 166.524 282.283C166.271 282.35 165.991 282.47 165.684 282.643H163.544V275.343H171.824L171.464 277.603Z" fill="black"/>
<path d="M201.68 276.084V289.604H198.58V279.164L195.68 280.944L194.3 278.844L198.86 276.084H201.68ZM208.497 275.804C209.444 275.804 210.25 275.958 210.917 276.264C211.597 276.571 212.11 276.984 212.457 277.504C212.817 278.024 212.997 278.604 212.997 279.244C212.997 280.058 212.764 280.738 212.297 281.284C211.844 281.831 211.197 282.224 210.357 282.464C211.264 282.558 212.004 282.884 212.577 283.444C213.15 283.991 213.437 284.771 213.437 285.784C213.437 286.544 213.237 287.244 212.837 287.884C212.437 288.511 211.844 289.011 211.057 289.384C210.284 289.758 209.357 289.944 208.277 289.944C206.304 289.944 204.757 289.264 203.637 287.904L205.337 286.244C205.79 286.698 206.23 287.031 206.657 287.244C207.097 287.444 207.577 287.544 208.097 287.544C208.724 287.544 209.23 287.371 209.617 287.024C210.004 286.678 210.197 286.198 210.197 285.584C210.197 284.891 210.01 284.398 209.637 284.104C209.277 283.798 208.73 283.644 207.997 283.644H206.877L207.217 281.464H207.997C208.597 281.464 209.07 281.311 209.417 281.004C209.764 280.698 209.937 280.264 209.937 279.704C209.937 279.211 209.777 278.831 209.457 278.564C209.137 278.284 208.697 278.144 208.137 278.144C207.19 278.144 206.31 278.538 205.497 279.324L203.937 277.624C205.217 276.411 206.737 275.804 208.497 275.804ZM221.408 280.504C222.154 280.504 222.821 280.684 223.408 281.044C223.994 281.391 224.454 281.904 224.788 282.584C225.121 283.251 225.288 284.051 225.288 284.984C225.288 285.904 225.088 286.744 224.688 287.504C224.288 288.251 223.714 288.844 222.968 289.284C222.234 289.724 221.374 289.944 220.388 289.944C218.654 289.944 217.368 289.364 216.528 288.204C215.688 287.044 215.268 285.451 215.268 283.424C215.268 281.904 215.501 280.571 215.968 279.424C216.448 278.278 217.128 277.391 218.008 276.764C218.901 276.124 219.948 275.804 221.148 275.804C222.308 275.804 223.334 276.104 224.228 276.704L223.068 278.584C222.468 278.238 221.854 278.064 221.228 278.064C220.468 278.064 219.854 278.384 219.388 279.024C218.921 279.664 218.641 280.571 218.548 281.744C219.361 280.918 220.314 280.504 221.408 280.504ZM220.428 287.684C220.988 287.684 221.408 287.451 221.688 286.984C221.981 286.504 222.128 285.851 222.128 285.024C222.128 284.184 221.994 283.584 221.728 283.224C221.461 282.864 221.061 282.684 220.528 282.684C219.808 282.684 219.148 283.038 218.548 283.744C218.574 285.171 218.728 286.184 219.008 286.784C219.288 287.384 219.761 287.684 220.428 287.684Z" fill="black"/>
<path d="M201.902 228.85V242.37H198.802V231.93L195.902 233.71L194.522 231.61L199.082 228.85H201.902ZM208.699 228.57C209.672 228.57 210.506 228.743 211.199 229.09C211.906 229.437 212.439 229.903 212.799 230.49C213.172 231.077 213.359 231.723 213.359 232.43C213.359 233.15 213.212 233.837 212.919 234.49C212.626 235.143 212.106 235.897 211.359 236.75C210.612 237.59 209.526 238.657 208.099 239.95H213.639L213.319 242.37H204.519V240.13C206.159 238.517 207.352 237.303 208.099 236.49C208.846 235.663 209.366 234.977 209.659 234.43C209.966 233.883 210.119 233.323 210.119 232.75C210.119 232.203 209.959 231.777 209.639 231.47C209.332 231.15 208.912 230.99 208.379 230.99C207.899 230.99 207.472 231.103 207.099 231.33C206.726 231.543 206.332 231.897 205.919 232.39L204.059 230.91C204.619 230.177 205.286 229.603 206.059 229.19C206.846 228.777 207.726 228.57 208.699 228.57ZM223.476 228.85V230.99L218.516 242.69L215.656 241.73L220.196 231.23H214.736V228.85H223.476Z" fill="black"/>
<path d="M355.975 252.096V265.616H352.875V255.176L349.975 256.956L348.595 254.856L353.155 252.096H355.975ZM362.792 251.816C363.739 251.816 364.546 251.97 365.212 252.276C365.892 252.583 366.406 252.996 366.752 253.516C367.112 254.036 367.292 254.616 367.292 255.256C367.292 256.07 367.059 256.75 366.592 257.296C366.139 257.843 365.492 258.236 364.652 258.476C365.559 258.57 366.299 258.896 366.872 259.456C367.446 260.003 367.732 260.783 367.732 261.796C367.732 262.556 367.532 263.256 367.132 263.896C366.732 264.523 366.139 265.023 365.352 265.396C364.579 265.77 363.652 265.956 362.572 265.956C360.599 265.956 359.052 265.276 357.932 263.916L359.632 262.256C360.086 262.71 360.526 263.043 360.952 263.256C361.392 263.456 361.872 263.556 362.392 263.556C363.019 263.556 363.526 263.383 363.912 263.036C364.299 262.69 364.492 262.21 364.492 261.596C364.492 260.903 364.306 260.41 363.932 260.116C363.572 259.81 363.026 259.656 362.292 259.656H361.172L361.512 257.476H362.292C362.892 257.476 363.366 257.323 363.712 257.016C364.059 256.71 364.232 256.276 364.232 255.716C364.232 255.223 364.072 254.843 363.752 254.576C363.432 254.296 362.992 254.156 362.432 254.156C361.486 254.156 360.606 254.55 359.792 255.336L358.232 253.636C359.512 252.423 361.032 251.816 362.792 251.816ZM377.143 258.356C378.05 258.796 378.723 259.316 379.163 259.916C379.603 260.503 379.823 261.183 379.823 261.956C379.823 262.69 379.61 263.363 379.183 263.976C378.77 264.576 378.163 265.056 377.363 265.416C376.563 265.776 375.623 265.956 374.543 265.956C373.49 265.956 372.57 265.783 371.783 265.436C371.01 265.076 370.416 264.603 370.003 264.016C369.59 263.416 369.383 262.75 369.383 262.016C369.383 260.51 370.223 259.39 371.903 258.656C370.583 257.883 369.923 256.816 369.923 255.456C369.923 254.736 370.123 254.103 370.523 253.556C370.923 253.01 371.476 252.583 372.183 252.276C372.903 251.97 373.716 251.816 374.623 251.816C375.996 251.816 377.116 252.13 377.983 252.756C378.863 253.37 379.303 254.216 379.303 255.296C379.303 255.896 379.123 256.463 378.763 256.996C378.416 257.516 377.876 257.97 377.143 258.356ZM374.643 253.956C374.136 253.956 373.73 254.09 373.423 254.356C373.13 254.623 372.983 255.003 372.983 255.496C372.983 255.95 373.11 256.323 373.363 256.616C373.63 256.896 374.05 257.156 374.623 257.396L375.043 257.556C375.496 257.263 375.81 256.956 375.983 256.636C376.156 256.303 376.243 255.91 376.243 255.456C376.243 255.003 376.103 254.643 375.823 254.376C375.556 254.096 375.163 253.956 374.643 253.956ZM374.643 263.696C375.283 263.696 375.776 263.536 376.123 263.216C376.483 262.883 376.663 262.456 376.663 261.936C376.663 261.39 376.51 260.963 376.203 260.656C375.896 260.336 375.356 260.036 374.583 259.756L373.923 259.516C373.016 260.023 372.563 260.803 372.563 261.856C372.563 262.416 372.75 262.863 373.123 263.196C373.496 263.53 374.003 263.696 374.643 263.696Z" fill="black"/>
<path d="M401.175 265.315L382.409 297.658H325.619V260.766H327.101V232.972H333.52V225.391H339.446V222.359H388.829V213.262H395.742V220.65L399.199 221.348L395.742 225.896V265.315H401.175Z" stroke="#45ABFF" stroke-width="2"/>
<path d="M113.768 200.123H111.299V181.425H84.1385H73.7682V184.962H71.7929V197.091L73.7682 198.101V201.134H69.3238V199.112H66.3608L64.8793 201.134V211.241H113.768V200.123Z" stroke="#4E4E4E" stroke-width="2"/>
<path d="M60.9287 195.575V184.962H69.3238V195.575H60.9287Z" stroke="#4E4E4E" stroke-width="2"/>
<path d="M269.323 215.284H274.755L275.249 214.778H325.619V213.262H332.039V211.241H337.965V213.262L386.854 212.757V213.768V220.337H385.866H337.471V223.875H331.545V230.95H325.126V259.25H323.644V307.765H323.15H274.262V304.228H269.817L270.311 258.745L270.805 230.445H269.323V215.284Z" stroke="#4E4E4E" stroke-width="2"/>
<path d="M38.2124 29.8162H68.3358V87.9327H38.7062L38.2124 29.8162Z" stroke="#4E4E4E" stroke-width="2"/>
<path d="M62.4099 259.25V213.768V212.252H111.299V216.8H114.755L115.249 262.283V301.195L110.311 303.722H60.4346V262.283L62.4099 259.25Z" stroke="#45ABFF" stroke-width="2"/>
<path d="M106.361 109.158L105.867 107.137V104.61H130.558V102.588H148.336V104.61H172.039V102.588H212.533V104.61H215.496V102.588H242.163V104.104L259.94 104.36V198.607H241.669V201.134H215.002V198.607H192.78V201.134H173.521L171.052 199.112L169.57 202.65H151.793H136.484L134.015 198.102H125.126L122.163 181.425L116.731 157.167L114.756 151.103V143.017L111.793 137.964L110.805 134.426L109.323 125.835L106.361 109.158Z" stroke="#4E4E4E" stroke-width="2"/>
<path d="M77.7183 43.461V22.7412V20.2144H121.669V25.7733H126.607L126.708 20.2144H189.817V36.3859H194.755V34.3645H258.459V50.0307H265.372V46.4932H297.965V62.6647H295.989V74.288H284.138V78.8363H282.162V86.9221H271.298V90.965H253.52L253.027 67.7183L248.088 66.2023H245.125V90.965H189.323L185.866 88.4382V83.3846L190.311 79.3417L184.879 77.3202V72.2666V66.7076H177.471V90.965L130.064 90.4596L128.089 87.4274L128.582 58.6218H117.224V88.9435H106.36V76.8148H94.0145V43.461H77.7183Z" stroke="#4E4E4E" stroke-width="2"/>
<path d="M294.508 102.083H271.792V200.123H294.508V197.596H297.965V200.123H337.965V101.578H297.471V105.115H294.508V102.083Z" stroke="#4E4E4E" stroke-width="2"/>
<path d="M248.089 211.747L246.607 214.779H236.731V255.713H234.755V260.41H181.916V307.765L212.533 308.271V305.744H215.002V307.765H221.916V305.744H235.249V272.39H243.644V294.121H257.965V262.283L255.002 259.756L257.965 258.745V214.779H255.99V211.747H248.089Z" stroke="#4E4E4E" stroke-width="2"/>
<path d="M116.731 318.883H68.8294H67.8418V325.958H71.2986V328.99H68.3356L68.8294 378.515H71.2986V380.032H77.2245V381.548H111.299V379.021H113.768V375.483H127.101V374.473L201.669 373.967V371.946L234.261 371.44V370.43H255.002V362.344H258.953V339.603V334.044H255.99V317.872H242.656V319.894H129.57V335.054H111.792V326.969L116.731 322.42V318.883Z" stroke="#4E4E4E" stroke-width="2"/>
<path d="M128.583 214.273H143.397H144.385V211.747H173.027H215.496H221.422V214.273H234.755V254.197H232.78V258.745H179.941V308.271H143.397V305.238H128.089L128.583 214.273Z" stroke="#45ABFF" stroke-width="2"/>
<path d="M128.583 260.261H179.94" stroke="#45ABFF" stroke-width="2"/>
<path d="M181.916 258.745V211.747" stroke="#45ABFF" stroke-width="2"/>
<path d="M62.9038 258.745H115.249" stroke="#45ABFF" stroke-width="2"/>
<path d="M135.788 199.062L131.242 207.662L121.24 209.955L128.514 215.115L126.392 225.148L135.788 219.415L145.487 225.148L142.759 215.115L150.033 209.955L139.425 207.662L135.788 199.062Z" fill="#FFE100" stroke="#030303"/>
<path d="M57.5 101V92.5H35.5V23H54V15.5H67L72.5 11H78V15.5H125M125 15.5V23M125 15.5H192.5V30.5M192.5 36V30.5M192.5 30.5H261.5V42.5M261.5 47.5V42.5M261.5 42.5H301V58.5H330V90M343 212V99H330V90M310.5 90H330M343 213.5L399.5 212V262H407.5L387.5 297L393.5 303L359 323V330H333.5M330.5 340.5V351.5H302V357H264.5M264.5 357V344.5M264.5 357V375H234.5M225.5 376.5H203M194.5 378H167.5M161 379.5H126M117 379.5L114 384H63.5V322H27V305.5H55.5V213.5H27V197.5H55.5V113" stroke="black" stroke-width="4"/>
<defs>
<filter id="filter0_d_553_200" x="0.1875" y="0" width="431.715" height="415.322" filterUnits="userSpaceOnUse" color-interpolation-filters="sRGB">
<feFlood flood-opacity="0" result="BackgroundImageFix"/>
<feColorMatrix in="SourceAlpha" type="matrix" values="0 0 0 0 0 0 0 0 0 0 0 0 0 0 0 0 0 0 127 0" result="hardAlpha"/>
<feOffset dx="5" dy="4"/>
<feGaussianBlur stdDeviation="2"/>
<feComposite in2="hardAlpha" operator="out"/>
<feColorMatrix type="matrix" values="0 0 0 0 0 0 0 0 0 0 0 0 0 0 0 0 0 0 0.25 0"/>
<feBlend mode="normal" in2="BackgroundImageFix" result="effect1_dropShadow_553_200"/>
<feBlend mode="normal" in="SourceGraphic" in2="effect1_dropShadow_553_200" result="shape"/>
</filter>
</defs>
</svg>
