<svg width="90" height="46" viewBox="0 0 90 46" fill="none" xmlns="http://www.w3.org/2000/svg">
<path d="M0 20.9047C0 9.64063 9.14063 0.5 20.4047 0.5C25.8188 0.5 31.0078 2.65156 34.8328 6.47656L45 16.6297L55.1531 6.47656C58.9922 2.65156 64.1813 0.5 69.5953 0.5C80.8594 0.5 90 9.64063 90 20.9047V25.0812C90 36.3594 80.8594 45.5 69.5953 45.5C64.1813 45.5 58.9922 43.3484 55.1672 39.5234L45 29.3703L34.8469 39.5234C31.0078 43.3484 25.8188 45.5 20.4047 45.5C9.14063 45.5 0 36.3594 0 25.0953V20.9187V20.9047ZM38.6297 23L28.4766 12.8469C26.3391 10.7094 23.4281 9.5 20.4047 9.5C14.1047 9.5 9 14.6047 9 20.9047V25.0812C9 31.3812 14.1047 36.4859 20.4047 36.4859C23.4281 36.4859 26.3391 35.2906 28.4766 33.1391L38.6297 23ZM51.3563 23L61.5094 33.1531C63.6469 35.2906 66.5578 36.5 69.5812 36.5C75.8812 36.5 80.9859 31.3953 80.9859 25.0953V20.9187C80.9859 14.6187 75.8812 9.51406 69.5812 9.51406C66.5578 9.51406 63.6469 10.7094 61.5094 12.8609L51.3703 23H51.3563Z" fill="#003DA5"/>
</svg>
