<svg width="90" height="90" viewBox="0 0 90 90" fill="none" xmlns="http://www.w3.org/2000/svg">
<path d="M26.7188 45C33.7086 45 39.375 39.3336 39.375 32.3438C39.375 25.3539 33.7086 19.6875 26.7188 19.6875C19.7289 19.6875 14.0625 25.3539 14.0625 32.3438C14.0625 39.3336 19.7289 45 26.7188 45Z" fill="#003DA5"/>
<path d="M41.1328 52.0312C36.1828 49.5176 30.7195 48.5156 26.7188 48.5156C18.8824 48.5156 2.8125 53.3215 2.8125 62.9297V70.3125H29.1797V67.4877C29.1797 64.1479 30.5859 60.7992 33.0469 58.0078C35.0104 55.7789 37.7596 53.71 41.1328 52.0312Z" fill="#003DA5"/>
<path d="M59.7656 50.625C50.6127 50.625 32.3438 56.2781 32.3438 67.5V75.9375H87.1875V67.5C87.1875 56.2781 68.9186 50.625 59.7656 50.625Z" fill="#003DA5"/>
<path d="M59.7656 45C68.3088 45 75.2344 38.0744 75.2344 29.5312C75.2344 20.9881 68.3088 14.0625 59.7656 14.0625C51.2225 14.0625 44.2969 20.9881 44.2969 29.5312C44.2969 38.0744 51.2225 45 59.7656 45Z" fill="#003DA5"/>
</svg>
